<?xml version="1.0" encoding="utf-8"?>
<!-- Generator: Adobe Illustrator 18.0.0, SVG Export Plug-In . SVG Version: 6.00 Build 0)  -->
<!DOCTYPE svg PUBLIC "-//W3C//DTD SVG 1.1//EN" "http://www.w3.org/Graphics/SVG/1.1/DTD/svg11.dtd">
<svg xmlns="http://www.w3.org/2000/svg" xmlns:xlink="http://www.w3.org/1999/xlink" viewBox="0 0 204.69 103.41"><defs><style>.cls-1{stroke-miterlimit:10;fill:url(#Pastel_Multicolor_4);stroke:url(#Yellow_Radial);}.cls-2{fill:#fff;}</style><linearGradient id="Pastel_Multicolor_4" x1="0.5" y1="51.7" x2="204.19" y2="51.7" gradientUnits="userSpaceOnUse"><stop offset="0" stop-color="#f7b2d0"/><stop offset="0.5" stop-color="#fff8a3"/><stop offset="1" stop-color="#96cff1"/></linearGradient><radialGradient id="Yellow_Radial" cx="102.34" cy="51.7" r="81.08" gradientUnits="userSpaceOnUse"><stop offset="0" stop-color="#fff"/><stop offset="0.14" stop-color="#fdf4cc"/><stop offset="0.29" stop-color="#fcea9f"/><stop offset="0.43" stop-color="#fae279"/><stop offset="0.58" stop-color="#f9dc5c"/><stop offset="0.72" stop-color="#f9d848"/><stop offset="0.86" stop-color="#f8d53b"/><stop offset="1" stop-color="#f8d437"/></radialGradient></defs><g id="Layer_2" data-name="Layer 2"><g id="Layer_3" data-name="Layer 3"><polygon class="cls-1" points="197.29 5.76 192.81 1.57 12.49 0.5 0.98 11.01 0.5 91.19 4.99 95.38 11.89 101.83 192.2 102.91 203.71 92.4 204.19 12.21 197.29 5.76"/></g><g id="Layer_9" data-name="Layer 9"><path class="cls-2" d="M147.51,23a1.85,1.85,0,0,0-1-.79c-1.19-.46-1.79-1.14-1.79-2A2.51,2.51,0,0,1,146,18.12a14.85,14.85,0,0,1,4.12-1.72,24.54,24.54,0,0,1,6.57-1.18c.89,0,1.43.13,1.62.38a6.54,6.54,0,0,1,.51,2.41c.09.73.35,1.1.78,1.1s.65-.24,1-.73a6,6,0,0,1,5.24-3.13,5,5,0,0,1,3.74,1.48,5.55,5.55,0,0,1,1.15,1.87,5.78,5.78,0,0,1,.46,2.19,5.87,5.87,0,0,1-.56,2.42,5.93,5.93,0,0,1-1.43,2.05,5.49,5.49,0,0,1-3.94,1.53,4.61,4.61,0,0,1-2.14-.45,10.51,10.51,0,0,1-2.27-1.83,1.44,1.44,0,0,0-1-.53.91.91,0,0,0-.92.79,16.27,16.27,0,0,0-.21,3.32,30.61,30.61,0,0,0,.28,5.17,2,2,0,0,0,.49,1.05,3.81,3.81,0,0,0,1.34.59c1.5.45,2.26,1.23,2.26,2.35a2.55,2.55,0,0,1-.73,1.8,3.57,3.57,0,0,1-1.93,1,36.76,36.76,0,0,1-7.08.51,22.28,22.28,0,0,1-6.75-.78,2.55,2.55,0,0,1-2.06-2.44A2.87,2.87,0,0,1,146,35a3.8,3.8,0,0,0,1-.87,2.48,2.48,0,0,0,.38-1.06,57.81,57.81,0,0,0,.4-8.46A3.78,3.78,0,0,0,147.51,23Z"/><path class="cls-2" d="M114.76,21.49a11.37,11.37,0,0,0-3-4.24,8.38,8.38,0,0,0-5.69-2.2,10.7,10.7,0,0,0-3,.49,9.92,9.92,0,0,0-2.75,1.21,6.34,6.34,0,0,1-1.68,1q-.6,0-.6-.93c0-.71-.13-1.14-.37-1.32a4.12,4.12,0,0,0-1.91-.26Q92.16,15.25,86,18a7.46,7.46,0,0,0-2.29,1.49,2.56,2.56,0,0,0-.7,1.77,2.12,2.12,0,0,0,.5,1.42,2.17,2.17,0,0,0,1.31.74,12.63,12.63,0,0,1,1.24.28.58.58,0,0,1,.29.32A46.68,46.68,0,0,1,86.81,31a87.71,87.71,0,0,1-.44,9.08,2.78,2.78,0,0,1-1.59,2.19,3.43,3.43,0,0,0-1.22.81,1.78,1.78,0,0,0-.31,1.14c0,1.09.69,2,2.08,2.74a20,20,0,0,0,9.53,2.18,11.22,11.22,0,0,0,4.75-.81A2.55,2.55,0,0,0,101.29,46a1.5,1.5,0,0,0-.24-1,9.13,9.13,0,0,0-1.47-1.12A3.16,3.16,0,0,1,98.25,41q0-1.5.75-1.5a1.79,1.79,0,0,1,.73.2,10.77,10.77,0,0,0,4.39,1,10.43,10.43,0,0,0,7.48-3.19,13.76,13.76,0,0,0,4.27-10.41A14.7,14.7,0,0,0,114.76,21.49ZM100.33,34.14a3.12,3.12,0,0,1-1.8-.47,1.48,1.48,0,0,1-.68-1.26c0-.27,0-.54,0-.83l.37-6.9c.1-1.57.75-2.36,1.93-2.36a2.9,2.9,0,0,1,2.16.93q1.45,1.52,1.46,5.2Q103.8,34.14,100.33,34.14Z"/><path class="cls-2" d="M51.08,16.33a45.75,45.75,0,0,1,9.83-1.08c1,0,1.49.42,1.49,1.25V30.1q0,4.36,2.88,4.37a2.75,2.75,0,0,0,1.43-.42,2.26,2.26,0,0,0,1-1c.37-.8.55-2.59.55-5.37A36.22,36.22,0,0,0,68,22.05a1.75,1.75,0,0,0-.35-.92,3.4,3.4,0,0,0-1-.66,2.22,2.22,0,0,1-1.43-1.91q0-1.56,2.46-2.16a38.21,38.21,0,0,1,9.21-1.15c1.69,0,2.53.89,2.53,2.68,0,.19,0,.56,0,1.13,0,.81-.06,1.78-.08,2.94V33.06c0,.57.49,1.09,1.46,1.56A1.9,1.9,0,0,1,82,36.38q0,2.25-5.35,3.48a26.53,26.53,0,0,1-6.07.73A3.43,3.43,0,0,1,69,40.32a1.34,1.34,0,0,1-.52-1.08c-.08-1-.4-1.56-1-1.56a1.12,1.12,0,0,0-.55.14q-.25.13-1.53,1A9.52,9.52,0,0,1,60,40.57q-4.82,0-6.8-2.79-1.68-2.33-1.68-7.85c0-1.37,0-2.55,0-3.52V25.26a9.55,9.55,0,0,0-.39-3.18,3.1,3.1,0,0,0-1.41-1.59,4.4,4.4,0,0,1-1.24-.8,1.2,1.2,0,0,1-.27-.83C48.19,17.59,49.15,16.74,51.08,16.33Z"/><path class="cls-2" d="M26,31.05a2.07,2.07,0,0,1,1.29.47A33,33,0,0,1,29.8,34a8.66,8.66,0,0,0,1.71,1.52,2.68,2.68,0,0,0,1.45.41,1.93,1.93,0,0,0,1.33-.44,1.48,1.48,0,0,0,.5-1.16c0-.76-.64-1.44-1.93-2.06A18.13,18.13,0,0,1,27,28.17a7.27,7.27,0,0,1-1.8-4.87,7.69,7.69,0,0,1,1.83-5.14,8.84,8.84,0,0,1,7.13-3.09,25.2,25.2,0,0,1,4.09.55,5.38,5.38,0,0,0,.95.1,6.13,6.13,0,0,0,1.66-.45,2.74,2.74,0,0,1,1-.22,3.17,3.17,0,0,1,2.33,1.48,10.57,10.57,0,0,1,1.56,2.58,6.4,6.4,0,0,1,.6,2.43,2.19,2.19,0,0,1-.7,1.67,2.45,2.45,0,0,1-1.76.67,2.87,2.87,0,0,1-1.57-.43,16.3,16.3,0,0,1-2.22-1.88A4.42,4.42,0,0,0,37.45,20a1.7,1.7,0,0,0-1.22.52,1.67,1.67,0,0,0-.51,1.22c0,.82.79,1.58,2.36,2.3a21.91,21.91,0,0,1,6.5,4.17,6.36,6.36,0,0,1,1.91,4.67,7.08,7.08,0,0,1-3.07,5.82,10.24,10.24,0,0,1-6.44,2,33.73,33.73,0,0,1-3.57-.33q-2.43-.27-2.73-.27a4.46,4.46,0,0,0-.76.07,8.43,8.43,0,0,1-1.05.11A2.72,2.72,0,0,1,27,39.71a8.56,8.56,0,0,1-1.9-2.92,8.71,8.71,0,0,1-.88-3.43C24.23,31.83,24.83,31.05,26,31.05Z"/><path class="cls-2" d="M52.64,66.14a11.26,11.26,0,0,0-3-4.24A8.39,8.39,0,0,0,44,59.69a11.13,11.13,0,0,0-3,.49,10.14,10.14,0,0,0-2.74,1.22,6.48,6.48,0,0,1-1.69,1q-.6,0-.6-.93c0-.71-.12-1.14-.37-1.32a4.09,4.09,0,0,0-1.91-.26q-3.62,0-9.76,2.83a7.46,7.46,0,0,0-2.29,1.49,2.61,2.61,0,0,0-.7,1.77,2.12,2.12,0,0,0,.5,1.42,2.22,2.22,0,0,0,1.31.74,11.88,11.88,0,0,1,1.24.28.55.55,0,0,1,.29.32,46.53,46.53,0,0,1,.45,6.93,87.71,87.71,0,0,1-.44,9.08,2.79,2.79,0,0,1-1.59,2.19,3.52,3.52,0,0,0-1.22.81,1.78,1.78,0,0,0-.31,1.14c0,1.09.69,2,2.08,2.74a20,20,0,0,0,9.54,2.18A11.17,11.17,0,0,0,37.49,93a2.55,2.55,0,0,0,1.68-2.33,1.5,1.5,0,0,0-.24-1,9.13,9.13,0,0,0-1.47-1.12,3.18,3.18,0,0,1-1.33-2.86c0-1,.26-1.5.76-1.5a1.79,1.79,0,0,1,.72.2,10.77,10.77,0,0,0,4.39,1,10.43,10.43,0,0,0,7.48-3.19,13.76,13.76,0,0,0,4.27-10.41A14.67,14.67,0,0,0,52.64,66.14ZM38.22,78.79a3.13,3.13,0,0,1-1.81-.47,1.48,1.48,0,0,1-.68-1.26c0-.27,0-.54,0-.83l.37-6.9c.1-1.57.75-2.36,1.93-2.36a2.9,2.9,0,0,1,2.16.93q1.45,1.51,1.46,5.19C41.68,76.89,40.52,78.79,38.22,78.79Z"/><path class="cls-2" d="M83.13,66.52a12.74,12.74,0,0,0-4-4.44,13.84,13.84,0,0,0-8-2.39,16.66,16.66,0,0,0-11.22,4,12.17,12.17,0,0,0-4.42,9.69A11.17,11.17,0,0,0,59.07,82a13.79,13.79,0,0,0,9.71,3.41A17.5,17.5,0,0,0,79.7,81.75q5-3.81,5-9.26A12.32,12.32,0,0,0,83.13,66.52Zm-12,12.72a2.67,2.67,0,0,1-2.54-2,31.54,31.54,0,0,1-1.34-4.61,21,21,0,0,1-.56-4.1,3.33,3.33,0,0,1,.66-2.17,2.17,2.17,0,0,1,1.77-.82,2.66,2.66,0,0,1,2.31,1.76,20.12,20.12,0,0,1,1.37,4.36,24,24,0,0,1,.56,4.8C73.32,78.3,72.58,79.24,71.09,79.24Z"/><path class="cls-2" d="M106.55,82.36a12.9,12.9,0,0,1-8.64,3,9.12,9.12,0,0,1-6.45-2.27,7.81,7.81,0,0,1-2.43-6V65.54a.65.65,0,0,0-.85-.85H85.59a1.27,1.27,0,0,1-.93-.24,2,2,0,0,1-.2-1.12v-1.1a1.26,1.26,0,0,1,.58-1.1L96.53,53.9a2.27,2.27,0,0,1,1.06-.23h2a1,1,0,0,1,.84.29,2.13,2.13,0,0,1,.21,1.14v3.39a1.4,1.4,0,0,0,.24,1,1.59,1.59,0,0,0,1,.22h4.64a1.51,1.51,0,0,1,1.2.35,2.42,2.42,0,0,1,.28,1.44V63a2.94,2.94,0,0,1-.35,1.67,1.52,1.52,0,0,1-1.28.46h-4.54a1,1,0,0,0-1.21,1.21v8.48a3.93,3.93,0,0,0,.74,2.46,2.33,2.33,0,0,0,1.9,1,5.74,5.74,0,0,0,2.58-.9,1.25,1.25,0,0,1,1.86.5,2.74,2.74,0,0,1,.5,1.58A4,4,0,0,1,106.55,82.36Z"/><path class="cls-2" d="M133.67,65.64A10.84,10.84,0,0,0,131,62.43a12.45,12.45,0,0,0-8.11-2.71,14.11,14.11,0,0,0-5.54,1.08,13.38,13.38,0,0,0-5.62,4.34,12.18,12.18,0,0,0-2.56,7.58,12.69,12.69,0,0,0,1.48,6,12.38,12.38,0,0,0,2.86,3.64,13.09,13.09,0,0,0,8.83,3.06,15,15,0,0,0,9.21-3c1.51-1.13,2.26-2.29,2.26-3.49a2.67,2.67,0,0,0-.63-1.66,1.68,1.68,0,0,0-1.28-.8,2.67,2.67,0,0,0-1.35.6,8.79,8.79,0,0,1-2.42,1.14,9,9,0,0,1-2.68.47,5.88,5.88,0,0,1-3.8-1.45,4,4,0,0,1-1.77-3.07c0-.45.26-.68.78-.68h11.8a2,2,0,0,0,1.75-1,4.81,4.81,0,0,0,.68-2.67A8.39,8.39,0,0,0,133.67,65.64Zm-9.86,3.14h-2.54a2,2,0,0,1-1.26-.3,1.27,1.27,0,0,1-.37-1,3.47,3.47,0,0,1,.76-2.09,2.58,2.58,0,0,1,2.2-1.1,2.63,2.63,0,0,1,2,.85,3.2,3.2,0,0,1,.77,2.21C125.41,68.29,124.88,68.78,123.81,68.78Z"/><path class="cls-2" d="M167.52,84.56a25.61,25.61,0,0,1-7.08.66,13.87,13.87,0,0,1-4.89-.61,2.1,2.1,0,0,1-1.48-2,1.44,1.44,0,0,1,.15-.74,14,14,0,0,1,1-1.17q1-1,1-7a12.41,12.41,0,0,0-.8-5.12,2.92,2.92,0,0,0-4.72-.25,8.46,8.46,0,0,0-.63,3.91v5a7,7,0,0,0,.19,2,12.16,12.16,0,0,0,1.24,2.14,2,2,0,0,1,.28,1c0,1-.69,1.71-2.06,2.18a21.4,21.4,0,0,1-6.42.7q-7,0-7-2.88a1.65,1.65,0,0,1,.21-.92,4.55,4.55,0,0,1,1-.89,2.13,2.13,0,0,0,.83-1.09,20.83,20.83,0,0,0,.32-3q.18-2.85.18-6a6.09,6.09,0,0,0-.27-2.28,4.12,4.12,0,0,0-1.51-1.31,1.89,1.89,0,0,1-.2-3.3,16.15,16.15,0,0,1,3.61-1.62q2.4-.85,4.64-1.44a14.25,14.25,0,0,1,3.06-.59,1.66,1.66,0,0,1,1.27.55,1.86,1.86,0,0,1,.52,1.3s0,.26,0,.63a2.24,2.24,0,0,0,0,.35c0,.81.33,1.21,1,1.21.4,0,.83-.32,1.28-1a7.17,7.17,0,0,1,6.27-3.11,8.86,8.86,0,0,1,5.42,1.66,6.38,6.38,0,0,1,2.21,2.77,15.38,15.38,0,0,1,.78,4.68l.35,8.83a3.56,3.56,0,0,0,.31,1.48,12.33,12.33,0,0,0,1.55,1.83,1.6,1.6,0,0,1,.37,1.13Q169.5,83.92,167.52,84.56Z"/><path class="cls-2" d="M191.74,82.36a12.9,12.9,0,0,1-8.64,3,9.12,9.12,0,0,1-6.45-2.27,7.81,7.81,0,0,1-2.43-6V65.54a.65.65,0,0,0-.85-.85h-2.59a1.27,1.27,0,0,1-.93-.24,2,2,0,0,1-.2-1.12v-1.1a1.26,1.26,0,0,1,.58-1.1l11.49-7.23a2.27,2.27,0,0,1,1.06-.23h2a1,1,0,0,1,.84.29,2.13,2.13,0,0,1,.21,1.14v3.39a1.4,1.4,0,0,0,.24,1,1.59,1.59,0,0,0,1,.22h4.64A1.51,1.51,0,0,1,193,60a2.42,2.42,0,0,1,.28,1.44V63a2.94,2.94,0,0,1-.35,1.67,1.52,1.52,0,0,1-1.28.46h-4.54a1,1,0,0,0-1.21,1.21v8.48a3.93,3.93,0,0,0,.74,2.46,2.33,2.33,0,0,0,1.9,1,5.74,5.74,0,0,0,2.58-.9,1.37,1.37,0,0,1,.75-.23,1.38,1.38,0,0,1,1.11.73,2.74,2.74,0,0,1,.5,1.58A4,4,0,0,1,191.74,82.36Z"/><path class="cls-2" d="M142.11,21a10.69,10.69,0,0,0-2.71-3.21,12.46,12.46,0,0,0-8.1-2.71,14.16,14.16,0,0,0-5.55,1.08,13.45,13.45,0,0,0-5.62,4.34,12.24,12.24,0,0,0-2.56,7.58,12.84,12.84,0,0,0,4.34,9.61,13.1,13.1,0,0,0,8.84,3.06,15,15,0,0,0,9.21-3c1.5-1.12,2.25-2.29,2.25-3.49a2.72,2.72,0,0,0-.62-1.66,1.73,1.73,0,0,0-1.28-.8,2.66,2.66,0,0,0-1.36.6,8.66,8.66,0,0,1-2.42,1.14,9,9,0,0,1-2.67.47,5.86,5.86,0,0,1-3.8-1.45,4,4,0,0,1-1.77-3.07c0-.45.26-.68.78-.68h11.79a2,2,0,0,0,1.76-1,4.81,4.81,0,0,0,.67-2.67A8.39,8.39,0,0,0,142.11,21Zm-9.86,3.14h-2.53a2,2,0,0,1-1.27-.3,1.3,1.3,0,0,1-.36-1,3.52,3.52,0,0,1,.75-2.09,2.59,2.59,0,0,1,2.21-1.1,2.62,2.62,0,0,1,2,.85,3.16,3.16,0,0,1,.78,2.21C133.86,23.64,133.32,24.13,132.25,24.13Z"/></g></g></svg>